<svg fill="none" viewBox="0 0 67.574 40.39370078740158" xmlns="http://www.w3.org/2000/svg" style="max-height: 500px" width="67.574" height="40.39370078740158">
  <path fill="white" d="M35.7204 11.1003C35.8263 13.5421 35.9118 15.5128 34.3738 15.8988C32.884 16.2727 31.4182 15.8008 29.8755 15.3042C27.6468 14.5868 25.2578 13.8177 22.4042 15.4723C21.5693 15.9564 20.8741 16.5901 20.3327 17.3203C19.5225 18.358 18.9373 19.5573 18.3853 20.6887L18.3853 20.6888C17.6638 22.1675 16.9989 23.5304 15.9618 24.2656C14.4584 25.3314 12.3907 24.7704 10.3341 24.2124C9.13446 23.887 7.93863 23.5625 6.86076 23.5625C3.07167 23.5625 0 26.6474 0 30.4529C0 34.2583 3.07167 37.3432 6.86076 37.3432C11.1252 37.3432 12.7272 34.2434 14.0725 31.6403L14.0725 31.6403C15.0461 29.7564 15.8853 28.1327 17.5019 28.1327C21.5624 28.1327 25.0735 33.8964 25.0735 33.8964C26.9681 37.192 31.1641 38.3212 34.4455 36.4184C34.7711 36.2297 35.0678 36.0234 35.3387 35.8025C36.2107 35.0937 36.8736 34.1985 37.3029 33.209C37.9031 31.9175 38.1946 30.5149 38.4578 29.2488C38.9254 26.9989 39.5544 25.4615 40.7445 25.4615C45.5051 25.4615 47.6015 33.1252 52.0762 36.1486C54.2159 37.5942 57.0717 37.7301 59.4383 36.3578C62.7198 34.4551 63.8441 30.241 61.9495 26.9454L48.648 3.80728C46.7535 0.511684 42.5575 -0.617472 39.2761 1.28524C35.3923 3.53719 35.5755 7.75959 35.7204 11.1003Z"/>
  <path fill="white" d="M97.0963 11.2812C98.5849 11.2812 99.899 11.572 101.039 12.1535C102.178 12.735 103.062 13.6188 103.69 14.805C104.342 15.9913 104.658 17.4915 104.658 19.3057V29.9469H101.33V19.6895C101.33 17.8985 100.899 16.5495 100.062 15.6424C99.2245 14.7353 98.0499 14.2817 96.5381 14.2817C95.4216 14.2817 94.4447 14.5143 93.6074 14.9795C92.77 15.4447 92.1188 16.1308 91.6536 17.0379C91.2117 17.9451 90.9749 19.0731 90.9749 20.4222V29.9469H87.6465V19.6895C87.6465 17.8985 87.2227 16.5495 86.3853 15.6424C85.5713 14.7353 84.3967 14.2817 82.8616 14.2817C81.7684 14.2817 80.8031 14.5143 79.9658 14.9795C79.1284 15.4447 78.4772 16.1308 78.012 17.0379C77.5468 17.9451 77.2914 19.0731 77.2914 20.4222V29.9469H73.9648V11.4557L77.1746 11.4557V16.3751L76.6513 15.119C77.2328 13.9096 78.1283 12.9676 79.3378 12.293C80.5472 11.6185 81.9544 11.2812 83.5593 11.2812C85.327 11.2812 86.8505 11.7232 88.1298 12.607C89.4091 13.4676 90.2464 14.7818 90.6418 16.5495L89.2811 15.9913C89.8394 14.5725 90.8163 13.4327 92.2118 12.5721C93.6074 11.7115 95.2355 11.2812 97.0963 11.2812Z"/>
  <path fill="white" d="M109.079 36.9246C108.195 36.9246 107.334 36.7734 106.497 36.471C105.66 36.1919 104.939 35.7732 104.334 35.215L105.764 32.703C106.23 33.1449 106.741 33.4822 107.3 33.7148C107.858 33.9474 108.451 34.0637 109.079 34.0637C109.893 34.0637 110.567 33.8543 111.102 33.4357C111.637 33.017 112.138 32.2727 112.603 31.2028L113.754 28.6559L114.103 28.2372L121.36 11.4556H124.639L115.673 31.7959C115.138 33.0984 114.533 34.1218 113.859 34.8661C113.207 35.6104 112.486 36.1338 111.696 36.4361C110.905 36.7618 110.033 36.9246 109.079 36.9246ZM113.475 30.5399L105.032 11.4556H108.521L115.708 27.9232L113.475 30.5399Z"/>
  <path fill="white" d="M149.942 11.2811C151.44 11.2811 152.753 11.5718 153.882 12.1533C155.034 12.7348 155.932 13.6187 156.577 14.8049C157.222 15.9911 157.545 17.4914 157.545 19.3056V29.9468H154.227V19.6894C154.227 17.8984 153.79 16.5493 152.914 15.6422C152.062 14.7351 150.852 14.2815 149.286 14.2815C148.111 14.2815 147.086 14.5141 146.21 14.9793C145.335 15.4445 144.655 16.1307 144.172 17.0378C143.711 17.9449 143.48 19.073 143.48 20.422V29.9468H140.163L140.163 5.90833H143.48V16.4447L142.824 15.1189C143.423 13.9094 144.344 12.9674 145.588 12.2929C146.832 11.6183 148.284 11.2811 149.942 11.2811Z"/>
  <path fill="white" d="M169.026 30.1562C167.165 30.1562 165.513 29.7492 164.07 28.9351C162.628 28.121 161.488 27.0046 160.65 25.5858C159.812 24.1437 159.394 22.5155 159.394 20.7013C159.394 18.8638 159.812 17.2356 160.65 15.8168C161.488 14.398 162.628 13.2932 164.07 12.5024C165.513 11.6883 167.165 11.2812 169.026 11.2812C170.865 11.2812 172.505 11.6883 173.948 12.5024C175.413 13.2932 176.553 14.398 177.368 15.8168C178.206 17.2124 178.624 18.8405 178.624 20.7013C178.624 22.5388 178.206 24.1669 177.368 25.5858C176.553 27.0046 175.413 28.121 173.948 28.9351C172.505 29.7492 170.865 30.1562 169.026 30.1562ZM169.026 27.2255C170.213 27.2255 171.272 26.9581 172.202 26.4231C173.156 25.8881 173.901 25.1322 174.436 24.1553C174.971 23.1552 175.239 22.0038 175.239 20.7013C175.239 19.3755 174.971 18.2358 174.436 17.2822C173.901 16.3053 173.156 15.5493 172.202 15.0144C171.272 14.4794 170.213 14.2119 169.026 14.2119C167.84 14.2119 166.781 14.4794 165.85 15.0144C164.92 15.5493 164.175 16.3053 163.617 17.2822C163.058 18.2358 162.779 19.3755 162.779 20.7013C162.779 22.0038 163.058 23.1552 163.617 24.1553C164.175 25.1322 164.92 25.8881 165.85 26.4231C166.781 26.9581 167.84 27.2255 169.026 27.2255Z"/>
  <path fill="white" d="M189.861 30.156C188.063 30.156 186.452 29.7606 185.027 28.9698C183.626 28.179 182.517 27.0742 181.7 25.6554C180.882 24.2365 180.474 22.5851 180.474 20.7011C180.474 18.8171 180.882 17.1773 181.7 15.7818C182.517 14.3629 183.626 13.2581 185.027 12.4673C186.452 11.6765 188.063 11.2811 189.861 11.2811C191.426 11.2811 192.839 11.63 194.1 12.3277C195.361 13.0255 196.365 14.0722 197.112 15.4678C197.883 16.8633 198.268 18.6078 198.268 20.7011C198.268 22.7945 197.895 24.5389 197.147 25.9345C196.423 27.33 195.431 28.3883 194.17 29.1094C192.909 29.8072 191.473 30.156 189.861 30.156ZM190.142 27.2254C191.309 27.2254 192.36 26.9579 193.294 26.4229C194.252 25.888 194.999 25.132 195.536 24.1551C196.096 23.155 196.377 22.0036 196.377 20.7011C196.377 19.3753 196.096 18.2356 195.536 17.282C194.999 16.3051 194.252 15.5492 193.294 15.0142C192.36 14.4792 191.309 14.2117 190.142 14.2117C188.951 14.2117 187.888 14.4792 186.954 15.0142C186.02 15.5492 185.273 16.3051 184.712 17.282C184.152 18.2356 183.871 19.3753 183.871 20.7011C183.871 22.0036 184.152 23.155 184.712 24.1551C185.273 25.132 186.02 25.888 186.954 26.4229C187.888 26.9579 188.951 27.2254 190.142 27.2254ZM196.377 29.9467V24.9576L196.692 20.6662L196.376 16.3749V5.90833H199.704V29.9467H196.377Z"/>
  <path fill="white" d="M202.468 6.27815H201.554V5.90833H203.759V6.27815H202.845V8.49708H202.468V6.27815Z"/>
  <path fill="white" d="M206.735 8.49708L206.732 6.63207L205.768 8.25097H205.593L204.629 6.6435V8.49708H204.263V5.90833H204.576L205.688 7.78244L206.785 5.90833H207.097L207.101 8.49708H206.735Z"/>
  <path fill="white" d="M135.54 29.9468C133.506 29.9468 132.178 29.656 131.155 28.6558C130.131 27.6557 129.62 26.2252 129.62 24.3645V7.75745H132.969V24.2249C132.969 25.2251 133.213 25.9926 133.702 26.5276C134.213 27.0626 134.98 27.358 135.91 27.358C136.957 27.358 137.204 27.358 138.316 27.358V29.9468C138.316 29.9468 136.308 29.9468 135.54 29.9468ZM126.479 14.2118V11.4555H138.314V14.2118H126.479Z"/>
  <path fill="white" d="M234.416 8.688C235 8.688 235.528 8.824 236 9.096C236.472 9.36 236.84 9.736 237.104 10.224C237.376 10.704 237.512 11.252 237.512 11.868C237.512 12.484 237.376 13.032 237.104 13.512C236.84 13.992 236.472 14.368 236 14.64C235.528 14.912 235 15.048 234.416 15.048C233.856 15.048 233.348 14.916 232.892 14.652C232.444 14.38 232.096 14.004 231.848 13.524V15H231.272V6.096H231.872V10.164C232.12 9.7 232.468 9.34 232.916 9.084C233.364 8.82 233.864 8.688 234.416 8.688ZM234.38 14.508C234.86 14.508 235.292 14.396 235.676 14.172C236.06 13.948 236.36 13.636 236.576 13.236C236.8 12.836 236.912 12.38 236.912 11.868C236.912 11.356 236.8 10.9 236.576 10.5C236.36 10.1 236.06 9.788 235.676 9.564C235.292 9.34 234.86 9.228 234.38 9.228C233.9 9.228 233.468 9.34 233.084 9.564C232.708 9.788 232.408 10.1 232.184 10.5C231.968 10.9 231.86 11.356 231.86 11.868C231.86 12.38 231.968 12.836 232.184 13.236C232.408 13.636 232.708 13.948 233.084 14.172C233.468 14.396 233.9 14.508 234.38 14.508ZM239.586 10.104C239.778 9.648 240.078 9.3 240.486 9.06C240.894 8.812 241.39 8.688 241.974 8.688V9.276L241.83 9.264C241.134 9.264 240.59 9.484 240.198 9.924C239.806 10.356 239.61 10.96 239.61 11.736V15H239.01V8.736H239.586V10.104ZM245.379 8.688C246.155 8.688 246.751 8.888 247.167 9.288C247.583 9.68 247.791 10.26 247.791 11.028V15H247.215V13.884C247.015 14.252 246.723 14.54 246.339 14.748C245.955 14.948 245.495 15.048 244.959 15.048C244.263 15.048 243.711 14.884 243.303 14.556C242.903 14.228 242.703 13.796 242.703 13.26C242.703 12.74 242.887 12.32 243.255 12C243.631 11.672 244.227 11.508 245.043 11.508H247.191V11.004C247.191 10.42 247.031 9.976 246.711 9.672C246.399 9.368 245.939 9.216 245.331 9.216C244.915 9.216 244.515 9.288 244.131 9.432C243.755 9.576 243.435 9.768 243.171 10.008L242.871 9.576C243.183 9.296 243.559 9.08 243.999 8.928C244.439 8.768 244.899 8.688 245.379 8.688ZM245.043 14.556C245.563 14.556 246.003 14.436 246.363 14.196C246.731 13.956 247.007 13.608 247.191 13.152V11.976H245.055C244.439 11.976 243.991 12.088 243.711 12.312C243.439 12.536 243.303 12.844 243.303 13.236C243.303 13.644 243.455 13.968 243.759 14.208C244.063 14.44 244.491 14.556 245.043 14.556ZM252.963 8.688C253.747 8.688 254.367 8.916 254.823 9.372C255.279 9.828 255.507 10.484 255.507 11.34V15H254.907V11.388C254.907 10.684 254.727 10.148 254.367 9.78C254.015 9.412 253.519 9.228 252.879 9.228C252.143 9.228 251.563 9.448 251.139 9.888C250.715 10.328 250.503 10.92 250.503 11.664V15H249.903V8.736H250.479V10.092C250.695 9.652 251.015 9.308 251.439 9.06C251.871 8.812 252.379 8.688 252.963 8.688ZM263.197 6.096V15H262.609V13.524C262.361 14.012 262.013 14.388 261.565 14.652C261.117 14.916 260.609 15.048 260.041 15.048C259.457 15.048 258.929 14.912 258.457 14.64C257.985 14.368 257.613 13.992 257.341 13.512C257.077 13.032 256.945 12.484 256.945 11.868C256.945 11.252 257.077 10.704 257.341 10.224C257.613 9.736 257.985 9.36 258.457 9.096C258.929 8.824 259.457 8.688 260.041 8.688C260.601 8.688 261.101 8.82 261.541 9.084C261.989 9.348 262.341 9.716 262.597 10.188V6.096H263.197ZM260.077 14.508C260.557 14.508 260.985 14.396 261.361 14.172C261.745 13.948 262.045 13.636 262.261 13.236C262.485 12.836 262.597 12.38 262.597 11.868C262.597 11.356 262.485 10.9 262.261 10.5C262.045 10.1 261.745 9.788 261.361 9.564C260.985 9.34 260.557 9.228 260.077 9.228C259.597 9.228 259.165 9.34 258.781 9.564C258.405 9.788 258.105 10.1 257.881 10.5C257.665 10.9 257.557 11.356 257.557 11.868C257.557 12.38 257.665 12.836 257.881 13.236C258.105 13.636 258.405 13.948 258.781 14.172C259.165 14.396 259.597 14.508 260.077 14.508ZM233.156 21.564C232.372 21.564 231.98 21.984 231.98 22.824V23.736H233.984V24.252H231.992V30H231.392V24.252H230.24V23.736H231.392V22.776C231.392 22.248 231.544 21.828 231.848 21.516C232.152 21.204 232.58 21.048 233.132 21.048C233.372 21.048 233.6 21.084 233.816 21.156C234.04 21.22 234.224 21.32 234.368 21.456L234.128 21.912C233.872 21.68 233.548 21.564 233.156 21.564ZM236.386 25.104C236.578 24.648 236.878 24.3 237.286 24.06C237.694 23.812 238.19 23.688 238.774 23.688V24.276L238.63 24.264C237.934 24.264 237.39 24.484 236.998 24.924C236.606 25.356 236.41 25.96 236.41 26.736V30H235.81V23.736H236.386V25.104ZM242.18 23.688C242.956 23.688 243.552 23.888 243.968 24.288C244.384 24.68 244.592 25.26 244.592 26.028V30H244.016V28.884C243.816 29.252 243.524 29.54 243.14 29.748C242.756 29.948 242.296 30.048 241.76 30.048C241.064 30.048 240.512 29.884 240.104 29.556C239.704 29.228 239.504 28.796 239.504 28.26C239.504 27.74 239.688 27.32 240.056 27C240.432 26.672 241.028 26.508 241.844 26.508H243.992V26.004C243.992 25.42 243.832 24.976 243.512 24.672C243.2 24.368 242.74 24.216 242.132 24.216C241.716 24.216 241.316 24.288 240.932 24.432C240.556 24.576 240.236 24.768 239.972 25.008L239.672 24.576C239.984 24.296 240.36 24.08 240.8 23.928C241.24 23.768 241.7 23.688 242.18 23.688ZM241.844 29.556C242.364 29.556 242.804 29.436 243.164 29.196C243.532 28.956 243.808 28.608 243.992 28.152V26.976H241.856C241.24 26.976 240.792 27.088 240.512 27.312C240.24 27.536 240.104 27.844 240.104 28.236C240.104 28.644 240.256 28.968 240.56 29.208C240.864 29.44 241.292 29.556 241.844 29.556ZM254.504 23.688C255.28 23.688 255.888 23.916 256.328 24.372C256.776 24.828 257 25.484 257 26.34V30H256.4V26.388C256.4 25.684 256.228 25.148 255.884 24.78C255.54 24.412 255.06 24.228 254.444 24.228C253.74 24.228 253.18 24.448 252.764 24.888C252.356 25.328 252.152 25.92 252.152 26.664V30H251.552V26.388C251.552 25.684 251.38 25.148 251.036 24.78C250.692 24.412 250.212 24.228 249.596 24.228C248.892 24.228 248.332 24.448 247.916 24.888C247.508 25.328 247.304 25.92 247.304 26.664V30H246.704V23.736H247.28V25.08C247.488 24.64 247.796 24.3 248.204 24.06C248.62 23.812 249.112 23.688 249.68 23.688C250.248 23.688 250.728 23.816 251.12 24.072C251.52 24.328 251.804 24.704 251.972 25.2C252.18 24.736 252.504 24.368 252.944 24.096C253.392 23.824 253.912 23.688 254.504 23.688ZM264.421 27.012H259.033C259.049 27.5 259.173 27.936 259.405 28.32C259.637 28.696 259.949 28.988 260.341 29.196C260.741 29.404 261.189 29.508 261.685 29.508C262.093 29.508 262.469 29.436 262.813 29.292C263.165 29.14 263.457 28.92 263.689 28.632L264.037 29.028C263.765 29.356 263.421 29.608 263.005 29.784C262.597 29.96 262.153 30.048 261.673 30.048C261.049 30.048 260.493 29.912 260.005 29.64C259.517 29.368 259.133 28.992 258.853 28.512C258.581 28.032 258.445 27.484 258.445 26.868C258.445 26.26 258.573 25.716 258.829 25.236C259.093 24.748 259.453 24.368 259.909 24.096C260.365 23.824 260.877 23.688 261.445 23.688C262.013 23.688 262.521 23.824 262.969 24.096C263.425 24.36 263.781 24.732 264.037 25.212C264.301 25.692 264.433 26.236 264.433 26.844L264.421 27.012ZM261.445 24.216C261.005 24.216 260.609 24.316 260.257 24.516C259.905 24.708 259.621 24.984 259.405 25.344C259.197 25.696 259.077 26.096 259.045 26.544H263.845C263.821 26.096 263.701 25.696 263.485 25.344C263.269 24.992 262.985 24.716 262.633 24.516C262.281 24.316 261.885 24.216 261.445 24.216ZM274.764 23.736L272.388 30H271.824L269.712 24.564L267.588 30H267.036L264.66 23.736H265.236L267.324 29.328L269.46 23.736H269.976L272.1 29.316L274.212 23.736H274.764ZM278.072 30.048C277.48 30.048 276.944 29.912 276.464 29.64C275.992 29.368 275.62 28.992 275.348 28.512C275.076 28.024 274.94 27.476 274.94 26.868C274.94 26.26 275.076 25.716 275.348 25.236C275.62 24.748 275.992 24.368 276.464 24.096C276.944 23.824 277.48 23.688 278.072 23.688C278.664 23.688 279.196 23.824 279.668 24.096C280.148 24.368 280.524 24.748 280.796 25.236C281.068 25.716 281.204 26.26 281.204 26.868C281.204 27.476 281.068 28.024 280.796 28.512C280.524 28.992 280.148 29.368 279.668 29.64C279.196 29.912 278.664 30.048 278.072 30.048ZM278.072 29.508C278.552 29.508 278.98 29.396 279.356 29.172C279.74 28.948 280.04 28.636 280.256 28.236C280.48 27.836 280.592 27.38 280.592 26.868C280.592 26.356 280.48 25.9 280.256 25.5C280.04 25.1 279.74 24.788 279.356 24.564C278.98 24.34 278.552 24.228 278.072 24.228C277.592 24.228 277.16 24.34 276.776 24.564C276.4 24.788 276.1 25.1 275.876 25.5C275.66 25.9 275.552 26.356 275.552 26.868C275.552 27.38 275.66 27.836 275.876 28.236C276.1 28.636 276.4 28.948 276.776 29.172C277.16 29.396 277.592 29.508 278.072 29.508ZM283.281 25.104C283.473 24.648 283.773 24.3 284.181 24.06C284.589 23.812 285.085 23.688 285.669 23.688V24.276L285.525 24.264C284.829 24.264 284.285 24.484 283.893 24.924C283.501 25.356 283.305 25.96 283.305 26.736V30H282.705V23.736H283.281V25.104ZM289.194 26.652L287.562 28.14V30H286.962V21.096H287.562V27.396L291.57 23.736H292.338L289.638 26.268L292.602 30H291.858L289.194 26.652Z"/>
  <rect fill="white" height="24" width="0.5" y="6" x="216" opacity="0.5"/>
</svg>